<?xml version="1.0" encoding="utf-8"?>
<!-- Generator: Adobe Illustrator 22.1.0, SVG Export Plug-In . SVG Version: 6.00 Build 0)  -->
<svg version="1.1" id="Layer_1" xmlns="http://www.w3.org/2000/svg" xmlns:xlink="http://www.w3.org/1999/xlink" x="0px" y="0px"
	 viewBox="0 0 300 300" style="enable-background:new 0 0 300 300;" xml:space="preserve">
<path d="M44,265.5h88.9V23.8H44V265.5z M50.1,126.1l76.5-77.5v70.1l-0.1-0.1L50.1,196V126.1z M50.1,259.2v-54.4l76.5-77.5v131.9
	H50.1z M126.7,40L126.7,40l-76.5,77.3V99.8L119,30h7.6L126.7,40L126.7,40z M110.3,30L50.1,91V30H110.3z M273,283V0H27v283H15v17h270
	v-17H273z M153.1,6.3h113.7V283H153.1V6.3z M33.2,6.3h113.7V283H33.2V6.3z M278.8,293.7H21.2v-4.5h257.6L278.8,293.7L278.8,293.7z
	 M256,265.5V23.8h-88.9v241.7H256z M173.3,30h61.2l-61.2,62V30z M173.3,100.6l0.1,0.1L243.3,30h6.6v10.8l-76.5,77.5v-17.7H173.3z
	 M173.3,126.9l0.1,0.1l76.4-77.4v69.9L173.3,197L173.3,126.9L173.3,126.9z M173.3,205.7l0.1,0.1l76.4-77.4v130.8h-76.5L173.3,205.7
	L173.3,205.7z M278.8,293.7 M136.7,158h6.2v26.2h-6.2V158z M157.2,158h6.2v26.2h-6.2V158z"/>
</svg>
