<?xml version="1.0" encoding="utf-8"?>
<!-- Generator: Adobe Illustrator 22.1.0, SVG Export Plug-In . SVG Version: 6.00 Build 0)  -->
<svg version="1.1" id="Layer_1" xmlns="http://www.w3.org/2000/svg" xmlns:xlink="http://www.w3.org/1999/xlink" x="0px" y="0px"
	 viewBox="0 0 300 300" style="enable-background:new 0 0 300 300;" xml:space="preserve">
<path d="M238.1,5.8c-1.2-0.9-2.7-1.2-4.1-0.9l-66.1,16.4C165.1,9.1,154.2,0,141.1,0c-13.5,0-24.8,9.7-27.1,22.5H94
	c-18.7,0-34,14.6-34,32.6c0,2.6,2.2,4.8,4.8,4.8c2.7,0,4.8-2.1,4.8-4.8c0-12.7,10.9-23,24.4-23h19.6v9.6H94c-2.7,0-4.8,2.1-4.8,4.8
	s2.2,4.8,4.8,4.8h19.6V77c-10.8,4.9-20.1,12.6-26.9,22.5C79,110.4,75,123.3,75,136.7v158.6c0,2.6,2.2,4.8,4.8,4.8h122.6
	c2.7,0,4.8-2.1,4.8-4.8V136.7c0-13.4-4-26.3-11.7-37.3c-6.8-9.8-16.1-17.5-26.9-22.5V59.7L234,76c0.4,0.1,0.8,0.1,1.2,0.1
	c1.1,0,2.1-0.4,3-1c1.2-0.9,1.9-2.3,1.9-3.8V9.6C240,8.1,239.3,6.7,238.1,5.8z M141.1,9.6c9.8,0,17.9,8,17.9,17.7v48h-35.7v-48
	C123.2,17.5,131.2,9.6,141.1,9.6z M84.6,290.4v-29.8h113v29.8H84.6z M197.3,131.9h-79c-2.7,0-4.8,2.1-4.8,4.8c0,2.6,2.2,4.8,4.8,4.8
	h79.2v109.6h-113V141.4H99c2.7,0,4.8-2.1,4.8-4.8c0-2.6-2.2-4.8-4.8-4.8H84.8c1.8-20.8,14.9-38.9,34.6-47h43.4
	C182.4,93,195.6,111,197.3,131.9z M230.4,65.2l-61.8-15.3V31.1l61.8-15.3V65.2z M114.9,231.2c6.8,6.8,15.8,10.3,26.1,10.3
	s19.4-3.6,26.1-10.3c7-7,11-17,10.9-27.3c-0.1-19.2-13.9-36.4-14.4-37.1c-0.9-1.2-2.4-1.8-3.9-1.8s-2.9,0.8-3.8,2c0,0-0.4,0.5-1,1.4
	c-2.4-5.1-5.9-11.3-10.5-16.1c-0.9-0.9-2.2-1.5-3.5-1.5s-2.5,0.5-3.5,1.5c-4.6,4.7-8.1,10.9-10.5,16.1c-0.6-0.8-1-1.4-1-1.4
	c-0.9-1.2-2.3-2-3.8-2c-1.5-0.1-3,0.6-3.9,1.8c-0.6,0.7-14.3,17.9-14.4,37.1C104,214.2,107.9,224.2,114.9,231.2z M122.3,178.1
	l1.1,1.6c1.4,2,2.5,3.5,5.2,3.4c1.9-0.1,3.6-1.3,4.2-3.1c0,0,0.1-0.1,0.1-0.3c0.9-2.6,3.6-10.2,8.1-16.5c4.5,6.3,7.2,13.9,8.1,16.5
	c0.1,0.2,0.1,0.3,0.1,0.3c0.8,2.2,3.1,3.5,5.4,3c1.9-0.4,2.5-1.3,4-3.3l1.1-1.6c3.6,5.8,8.5,15.7,8.6,25.8
	c0.1,7.8-2.9,15.3-8.1,20.5c-4.9,4.9-11.6,7.5-19.3,7.5s-14.4-2.6-19.3-7.5c-5.2-5.2-8.1-12.7-8.1-20.5
	C113.8,193.8,118.7,184,122.3,178.1z"/>
</svg>
