<?xml version="1.0" encoding="utf-8"?>
<!-- Generator: Adobe Illustrator 22.1.0, SVG Export Plug-In . SVG Version: 6.00 Build 0)  -->
<svg version="1.1" id="Layer_1" xmlns="http://www.w3.org/2000/svg" xmlns:xlink="http://www.w3.org/1999/xlink" x="0px" y="0px"
	 viewBox="0 0 300 300" style="enable-background:new 0 0 300 300;" xml:space="preserve">
<path d="M210,290.2h-0.2v-9.7c0-2.7-2.2-4.9-5-4.9h-19.8v-54.2h0.1c2.8,0,5-2.2,5-4.9c0-2.7-2.2-4.9-5-4.9h-5v-14.8
	c0-2.7-2.2-4.9-5-4.9v-36.3l2.9-2.1c0,0,0,0,0,0l0,0c0,0,0.1-0.1,0.1-0.1c0.1-0.1,0.2-0.1,0.3-0.2c0.1-0.1,0.1-0.1,0.2-0.2
	c0.1-0.1,0.1-0.1,0.2-0.2c0.1-0.1,0.1-0.1,0.2-0.2c0,0,0.1-0.1,0.1-0.1c0.1-0.1,0.1-0.2,0.2-0.2c0-0.1,0.1-0.1,0.1-0.2
	c0-0.1,0.1-0.2,0.1-0.2c0-0.1,0.1-0.1,0.1-0.2c0-0.1,0.1-0.1,0.1-0.2c0-0.1,0.1-0.2,0.1-0.2c0-0.1,0-0.1,0.1-0.2
	c0-0.1,0.1-0.2,0.1-0.3c0-0.1,0-0.1,0-0.2c0-0.1,0-0.2,0.1-0.3c0-0.1,0-0.2,0-0.2c0-0.1,0-0.2,0-0.2c0-0.1,0-0.2,0-0.4
	c0,0,0-0.1,0-0.1c0,0,0,0,0,0c0,0,0,0,0,0c0-1.1-0.4-11.6-1.8-25.8l14.1-23.4c1.3-2.2,0.7-5.1-1.4-6.5l-13-8.9
	c-1.1-0.8-2.5-1.1-3.8-0.8c-0.5,0.1-1,0.3-1.4,0.5c-0.5-2.5-1.1-5-1.6-7.5c-0.8-3.4-3.8-5.1-6.6-6.1c-1.8-3.1-3.3-7.4-4-11.6h2.1
	c2.8,0,5-2.2,5-4.9c0-2.7-2.2-4.9-5-4.9H155v-4.9c0-2.7-2.2-4.9-5-4.9s-5,2.2-5,4.9v4.9h-7.5c-2.8,0-5,2.2-5,4.9
	c0,2.7,2.2,4.9,5,4.9h2.2c-0.4,3.1-1.1,6-2.2,9.3c-4.2-1.2-6.5-4.3-7.6-10l-4.9-34v-9.5c2.8,0,5-2.2,5-4.9s-2.2-4.9-5-4.9
	c0-2.7-2.2-4.9-5-4.9s-5,2.2-5,4.9h-0.2c-2.8,0-5,2.2-5,4.9s2.2,4.9,5,4.9h0.2v9.8c0,0,0,0.1,0,0.1c0,0.1,0,0.2,0,0.3
	c0,0.1,0,0.2,0,0.3c0,0,0,0.1,0,0.1l5,34.3c-5.9,13.7-1.6,23.3,1.8,31c1.8,3.9,3.3,7.3,3.3,10.7v14.3c-2.4,3.2-3.9,5.4-4.1,5.7
	c-1.5,2.3-0.9,5.3,1.3,6.8c0.8,0.6,1.8,0.8,2.7,0.8v62.9H125c-2.8,0-5,2.2-5,4.9v14.8h-5c-2.8,0-5,2.2-5,4.9c0,2.7,2.2,4.9,5,4.9
	h0.1v54.2H95.2c-2.8,0-5,2.2-5,4.9v9.7H90c-2.8,0-5,2.2-5,4.9s2.2,4.9,5,4.9h120c2.8,0,5-2.2,5-4.9S212.8,290.2,210,290.2z
	 M135.1,118.8c6.4-8.5,17.2-21.9,28-31.5c4.8,24.4,6.4,51.3,6.8,59.6L135.1,172L135.1,118.8L135.1,118.8z M176.5,95.5l4.9,3.4
	l-5,8.2c-0.4-3.1-0.8-6.2-1.3-9.4L176.5,95.5z M150.3,59c0.4,3.2,1.2,6.7,2.4,9.9c-1.4-0.1-2.5-0.1-3-0.1h-1.8c1-3.3,1.7-6.5,2-9.8
	H150.3z M131,86.6c-1.9-4.4-3.7-8.4-3.9-13c3.8,3.3,8.8,5.1,15.1,5.1h7.4c2.9,0,5.6,0.2,7.7,0.5c-8,6.9-15.9,15.7-22.3,23.5v-1.4
	C135.1,95.8,133,91.1,131,86.6z M135.1,184.2l29.9-21.5v29.1h-29.9V184.2z M130,201.6h40v9.9h-40V201.6z M125.1,221.4h49.9v54.2
	h-49.9L125.1,221.4L125.1,221.4z M100.2,285.4h99.6v4.7h-99.6V285.4z M150,226.6c-2.8,0-5,2.2-5,4.9v4.8c0,2.7,2.2,4.9,5,4.9
	s5-2.2,5-4.9v-4.8C155,228.8,152.8,226.6,150,226.6z M135,226.6c-2.8,0-5,2.2-5,4.9v4.8c0,2.7,2.2,4.9,5,4.9s5-2.2,5-4.9v-4.8
	C140,228.8,137.8,226.6,135,226.6z M165,226.6c-2.8,0-5,2.2-5,4.9v4.8c0,2.7,2.2,4.9,5,4.9s5-2.2,5-4.9v-4.8
	C170,228.8,167.8,226.6,165,226.6z"/>
</svg>
