<?xml version="1.0" encoding="utf-8"?>
<!-- Generator: Adobe Illustrator 22.1.0, SVG Export Plug-In . SVG Version: 6.00 Build 0)  -->
<svg version="1.1" id="Layer_1" xmlns="http://www.w3.org/2000/svg" xmlns:xlink="http://www.w3.org/1999/xlink" x="0px" y="0px"
	 viewBox="0 0 300 300" style="enable-background:new 0 0 300 300;" xml:space="preserve">
<path d="M261.6,111.6c-14.4-39.3-50.2-68-92-74.9c-0.7-0.3-1.4-0.4-2.3-0.5c-0.5,0-1.1,0-1.6,0c-5.2-0.7-10.4-1.1-15.7-1.1
	c-50,0-95.1,31.2-111.7,76.6C17.2,111.8,0,129,0,150c0,21,17.2,38.2,38.3,38.4C54.9,233.8,100,265,150,265
	c19.5,0,38.1-4.8,54.7-13.2c-3.8-3.3-7.5-6.9-10.8-10.8c-13.5,6.2-28.4,9.7-44,9.7c-45.6,0-86.6-29.5-99.6-71.9l-1.8-5.9l-6.2,0.9
	c-1.4,0.2-2.5,0.3-3.6,0.3c-13.4,0-24.3-10.8-24.3-24.1c0-13.3,10.9-24.1,24.3-24.1c1,0,2.2,0.1,3.6,0.3l6.2,0.9l1.8-5.9
	c8.8-28.7,30.5-51.5,57.8-63.2c-6.1,13.4,2.2,29.8,16,36.2c17.2,8,44.9,9,56.6-8.4c5.3-7.8,0.6-17.8-5.8-23.1
	c-8.9-7.5-21.9-8.6-32.5-4.4c-8.6,3.4-4.9,17.3,3.9,13.9c6.3-2.5,12.1-2.7,18.1,0.6c8.3,4.5,0.7,9.7-5.2,11.3
	c-10.8,3.1-26.8,0.6-35.3-7c-10.7-9.5,3.1-20.3,11.6-23.2c9.2-3.2,19.4-3.9,29.1-3.6c39.5,5.6,73.3,33.1,84.9,70.7l1.8,5.9l6.2-0.9
	c1.4-0.2,2.5-0.3,3.6-0.3c13.4,0,24.3,10.8,24.3,24.1c0,13.3-10.9,24.1-24.3,24.1c-1,0-2.2-0.1-3.6-0.3l-6.2-0.9l-1.8,5.9
	c-0.6,2.1-1.4,4.2-2.2,6.2c2.2-0.5,4.5-0.8,6.8-0.8c5.2,0,10,1.3,14.3,3.6c17.9-3.4,31.5-19,31.5-37.7
	C300,129,282.8,111.8,261.6,111.6z M119.3,145c-12.5,0-12.5,19.2,0,19.2S131.8,145,119.3,145z M180.6,143.8
	c-12.5,0-12.5,19.2,0,19.2C193.1,163,193.1,143.8,180.6,143.8z M150,212.3c15.7,0,28.5-12.7,28.5-28.3c0-4-3.3-7.2-7.3-7.2
	c-4,0-7.3,3.2-7.3,7.2c0,7.7-6.3,13.9-14,13.9s-14-6.2-14-13.9c0-4-3.2-7.2-7.3-7.2c-4,0-7.3,3.2-7.3,7.2
	C121.5,199.6,134.3,212.3,150,212.3z M233.4,197.2c-29.3-16.6-69.4,30,0,65.2C303.5,226.8,261.7,181.1,233.4,197.2z M233.4,246.2
	c-34.7-20.4-25-37.9-12.8-37.9c5.7,0,8.5,3.8,12.8,7.8c4.2-4,7.1-7.8,12.8-7.8C256.9,208.3,269.5,224.9,233.4,246.2z"/>
</svg>
