<?xml version="1.0" encoding="utf-8"?>
<!-- Generator: Adobe Illustrator 22.1.0, SVG Export Plug-In . SVG Version: 6.00 Build 0)  -->
<svg version="1.1" id="Layer_1" xmlns="http://www.w3.org/2000/svg" xmlns:xlink="http://www.w3.org/1999/xlink" x="0px" y="0px"
	 viewBox="0 0 300 300" style="enable-background:new 0 0 300 300;" xml:space="preserve">
<path d="M274.6,77.2c-0.1-8.1-0.3-15.7-0.3-23.1c0-5.7-4.7-10.5-10.4-10.5c-44.6,0-78.4-12.9-106.8-40.6c-4-3.9-10.4-3.9-14.6,0
	C114.3,30.7,80.4,43.6,36,43.6c-5.7,0-10.4,4.8-10.4,10.5c0,7.4-0.1,15.1-0.3,23.1c-1.4,75.4-3.3,178.7,121.2,222.3
	c1.1,0.4,2.2,0.6,3.5,0.6s2.4-0.1,3.5-0.6C278.1,255.7,276.2,152.5,274.6,77.2z M150,290.1C33.2,247.2,35,153.5,36.6,70.7
	c0.1-4.9,0.1-9.8,0.3-14.6c45.5-2,82-15.8,113.1-43.3c31.2,27.5,67.6,41.3,113.1,43.3c0,4.8,0.1,9.5,0.3,14.6
	C265.1,153.5,266.7,247.2,150,290.1z M179.5,138.4V117c0-15.7-12.7-28.5-28.2-28.5S123,101.3,123,117v21.4c-6,0-10.6,4.6-10.6,10.7
	v42.7c0,6.1,4.6,10.7,10.6,10.7h56.5c6,0,10.6-4.6,10.6-10.7v-42.7C190.1,143,185.2,138.4,179.5,138.4z M130.1,117
	c0-11.8,9.5-21.4,21.2-21.4c11.6,0,21.2,9.6,21.2,21.4v21.4h-42.4V117z M183,191.8c0,2.1-1.4,3.6-3.5,3.6H123
	c-2.1,0-3.5-1.4-3.5-3.6v-42.7c0-2.1,1.4-3.6,3.5-3.6h56.5c2.1,0,3.5,1.4,3.5,3.6V191.8z M154.8,167.9v-8.2c0-2.1-1.4-3.6-3.5-3.6
	c-2.1,0-3.5,1.4-3.5,3.6v8.2c-2.1,1.1-3.5,3.6-3.5,6.1c0,3.9,3.2,7.1,7.1,7.1s7.1-3.2,7.1-7.1C158.3,171.1,156.9,169,154.8,167.9z"
	/>
</svg>
