<?xml version="1.0" encoding="utf-8"?>
<!-- Generator: Adobe Illustrator 22.1.0, SVG Export Plug-In . SVG Version: 6.00 Build 0)  -->
<svg version="1.1" id="Layer_1" xmlns="http://www.w3.org/2000/svg" xmlns:xlink="http://www.w3.org/1999/xlink" x="0px" y="0px"
	 viewBox="0 0 300 300" style="enable-background:new 0 0 300 300;" xml:space="preserve">
<path d="M88.3,268.4H58.9V80.7C51.8,87.5,42.5,94.2,31,101c-11.5,6.8-21.8,11.8-31,15.2V87.7C16.5,80,30.9,70.6,43.2,59.6
	c12.3-11,21-21.7,26.2-32.1h19V268.4z M272.7,114.6c-2.6,0-5.1-0.2-7.6-0.7c1.1,10.5,1.7,22.5,1.7,36.2c0,39.3-4.6,65.5-13.8,78.6
	c-9.2,13.1-20.6,19.6-34.1,19.6c-13.5,0-24.9-6.5-34.1-19.6c-9.2-13-13.8-39.3-13.8-78.6c0-39.4,5.1-66.4,15.2-81
	c8.1-11.5,18.9-17.2,32.4-17.2c4.9,0,9.6,0.9,13.9,2.5c3.5-8.5,9.7-15.7,17.5-20.5c-9.1-4.3-19.4-6.4-31.1-6.4
	c-17.5,0-31.9,4.7-43.4,14.1c-11.5,9.4-20.2,22.7-26,40c-5.8,17.3-8.8,40.1-8.8,68.5c0,45.1,7.9,77.6,23.7,97.5
	c13.2,16.6,31.4,24.9,54.5,24.9c17.6,0,32.1-4.7,43.6-14.2c11.5-9.4,20.1-22.8,25.9-40.1c5.8-17.3,8.7-40,8.7-68.2
	c0-16-0.8-29.8-2.5-41.4C288.2,112.4,280.7,114.6,272.7,114.6z M265.8,98.4V78h-20.5V64h20.5V43.7h13.6V64H300v14h-20.5v20.3H265.8z
	"/>
</svg>
