<?xml version="1.0" encoding="utf-8"?>
<!-- Generator: Adobe Illustrator 22.1.0, SVG Export Plug-In . SVG Version: 6.00 Build 0)  -->
<svg version="1.1" id="Layer_1" xmlns="http://www.w3.org/2000/svg" xmlns:xlink="http://www.w3.org/1999/xlink" x="0px" y="0px"
	 viewBox="0 0 300 160" style="enable-background:new 0 0 300 160;" xml:space="preserve">
<style type="text/css">
	.st0{fill:#FFFFFF;}
	.st1{fill:#F6B518;}
	.st2{fill:#FFCA05;}
	.st3{fill:url(#SVGID_1_);}
	.st4{fill:url(#SVGID_2_);}
	.st5{fill:url(#SVGID_3_);}
	.st6{opacity:0.17;fill:url(#SVGID_4_);}
	.st7{opacity:0.13;fill:url(#SVGID_5_);}
</style>
<path class="st0" d="M76.5,52.1v24.2l-28.4,49.9H22c-11.4,0-20.7-9.4-20.7-21V52.1l23.6-13.9l0.2,58.4c0,4.1,3.3,7.5,7.4,7.5h14.5
	c3.2,0,5.7-2.6,5.8-5.8l0.2-60L76.5,52.1z M299.7,101.4c-0.2-1.3-0.5-2.6-1-3.9h-0.1c-1.3-3.7-3.6-7-6.6-9.4c0,0,0,0,0,0
	c2.7-2.6,4.8-6,5.9-9.7c0.6-1.9,0.9-4,0.9-6.1c0-1.9-0.2-3.7-0.7-5.5c-2.4-9.4-10.8-16.3-20.7-16.3h-58.2l8.7,16.3l47.9,0
	c0.8,0,1.6,0.3,2.2,0.9c1.2,1.2,1.9,2.8,1.9,4.6c0,2.7-1.6,4.9-3.8,5.9c-0.4,0.2-0.8,0.2-1.2,0.2l-40.8,0l10.3,19.2h30.2
	c1.7,0,3.3,0.8,4.2,2.2c0.7,1,1,2.2,1,3.5c0,1.9-0.8,3.7-2.1,4.8c-1,0.9-2.3,1.3-3.6,1.3l-23.4,0l9.6,17.9h13.1c0,0,3.1-0.1,4.8-0.1
	c6.8,0,12.8-3.1,16.8-8.1v0c0.3-0.3,0.5-0.6,0.8-1c0.2-0.4,0.5-0.7,0.8-1.1c0.2-0.4,0.5-0.8,0.7-1.2c0.2-0.3,0.3-0.6,0.5-0.9
	c0.3-0.5,0.5-1.1,0.7-1.7c0.5-1.2,0.8-2.4,1.1-3.7h0c0.1-0.2,0.1-0.5,0.1-0.7c0.2-1.2,0.3-2.4,0.3-3.6
	C300,103.7,299.9,102.5,299.7,101.4z M13.8,160c4.6,0,5.1-4.3,5.2-6.2h-1.5c-0.1,3-1.2,5.1-3.8,5.1c-4.9,0-5-4.1-5-10.2
	c0-6.1,0.1-10.2,5-10.2c2.9,0,3.7,2.3,3.8,4.8h1.3c0-2-0.4-5.8-5.1-5.8c-6.3,0-6.3,5.4-6.3,11.2C7.5,154.6,7.5,160,13.8,160z
	 M23.9,148.8c0,5.9,0.1,11.2,6.3,11.2s6.3-5.4,6.3-11.2c0-5.9-0.1-11.2-6.3-11.2S23.9,142.9,23.9,148.8z M25.2,148.8
	c0-6.1,0.1-10.2,5-10.2c5,0,5,4.1,5,10.2c0,6.1,0,10.2-5,10.2C25.3,159,25.2,154.9,25.2,148.8z M43.9,159.6v-21.2l0.6,1.5l9.3,19.7
	h1.9v-21.7h-1.2v20.7l-0.6-1.2l-9.3-19.5h-2v21.7H43.9z M73.1,142.9c-0.1-2.9-1.1-5.4-5.2-5.4c-3.4,0-5.6,1.5-5.6,5.1
	c0,2,0.6,3.6,4.3,5.9l1,0.6c2.7,1.7,4.3,2.6,4.3,5.6c0,2.8-1.3,4.3-4.1,4.3c-4,0-4.4-2.5-4.4-5H62c0,3.8,1.8,6,5.7,6
	c3.7,0,5.5-1.9,5.5-5.6c0-4-2.7-4.8-5.3-6.6l-1.5-1v0c-1.7-1.1-2.8-1.7-2.8-4.5c0-2.9,1.6-3.8,4.2-3.8c3.2,0,3.8,1.7,4,4.4H73.1z
	 M82.4,159.6h1.3V139h5.4v-1h-12v1h5.3V159.6z M98.6,148.8c3.6,0,3.9,2.9,3.9,4.5v1c0,1.1,0.1,4.2,0.3,5.3h1.3l-0.1-0.6
	c-0.1-0.5-0.1-1.1-0.1-1.6c0-7.7-0.1-8.1-3.1-8.8V148c2.9-0.7,3.3-2.4,3.3-5.1c0-3.7-1-5-4.9-5h-5.8v21.7h1.3v-10.8H98.6z M94.6,139
	h4.3c2.5,0,3.8,0.7,3.8,4c0,4-1.4,4.9-4.6,4.9h-3.5V139z M110.9,137.9h-1.3v15.2c0,5.5,2.9,6.9,6.1,6.9c3.2,0,6.1-1.4,6.1-6.9v-15.2
	h-1.3v13.7c0,3,0,7.3-4.8,7.3c-4.8,0-4.8-4.3-4.8-7.3V137.9z M133.8,160c4.6,0,5.1-4.3,5.2-6.2h-1.5c-0.1,3-1.2,5.1-3.8,5.1
	c-4.9,0-5-4.1-5-10.2c0-6.1,0.1-10.2,5-10.2c2.9,0,3.7,2.3,3.8,4.8h1.3c0-2-0.4-5.8-5.1-5.8c-6.3,0-6.3,5.4-6.3,11.2
	C127.5,154.6,127.6,160,133.8,160z M147.9,159.6h1.3V139h5.4v-1h-12v1h5.3V159.6z M159.2,137.9v21.7h1.3v-21.7H159.2z M165.8,148.8
	c0,5.9,0.1,11.2,6.3,11.2c6.2,0,6.3-5.4,6.3-11.2c0-5.9-0.1-11.2-6.3-11.2C165.9,137.6,165.8,142.9,165.8,148.8z M167.1,148.8
	c0-6.1,0.1-10.2,5-10.2c5,0,5,4.1,5,10.2c0,6.1,0,10.2-5,10.2C167.2,159,167.1,154.9,167.1,148.8z M185.8,159.6v-21.2l0.6,1.5
	l9.3,19.7h1.9v-21.7h-1.2v20.7l-0.6-1.2l-9.3-19.5h-2v21.7H185.8z M221.2,158.3c-1.2,0.5-2.7,0.7-4.4,0.7c-4.8,0-5-4-5-9.2v-1.4
	c0-5.6,0.1-9.8,5-9.8c3.2,0,4.5,1.5,4.6,4.5h1.3c0-3.9-2-5.4-5.9-5.4c-6,0-6.3,5.3-6.3,9.5v3.5c0,4.2,0.4,9.5,6.3,9.5
	c1.9,0,3.8-0.3,5.7-0.8v-10.6h-5.7v1h4.4V158.3z M234.3,148.8c3.6,0,3.9,2.9,3.9,4.5v1c0,1.1,0.1,4.2,0.3,5.3h1.3l-0.1-0.6
	c-0.1-0.5-0.1-1.1-0.1-1.6c0-7.7-0.1-8.1-3.1-8.8V148c2.9-0.7,3.3-2.4,3.3-5.1c0-3.7-1-5-4.9-5H229v21.7h1.3v-10.8H234.3z
	 M230.3,139h4.3c2.5,0,3.8,0.7,3.8,4c0,4-1.4,4.9-4.6,4.9h-3.5V139z M245.1,148.8c0,5.9,0.1,11.2,6.3,11.2c6.2,0,6.3-5.4,6.3-11.2
	c0-5.9-0.1-11.2-6.3-11.2C245.2,137.6,245.1,142.9,245.1,148.8z M246.4,148.8c0-6.1,0.1-10.2,5-10.2c5,0,5,4.1,5,10.2
	c0,6.1,0,10.2-5,10.2C246.5,159,246.4,154.9,246.4,148.8z M264.8,137.9h-1.3v15.2c0,5.5,2.9,6.9,6.1,6.9c3.2,0,6.1-1.4,6.1-6.9
	v-15.2h-1.3v13.7c0,3,0,7.3-4.8,7.3c-4.8,0-4.8-4.3-4.8-7.3V137.9z M281.6,159.6h1.3v-10.4h4c3.6,0,4.9-1.9,4.9-6.2
	c0-4.8-2.8-5.1-4.5-5.1h-5.7V159.6z M282.9,139h3.9c1.9,0,3.7,0.3,3.7,4.5c0,3.7-1.5,4.8-3.7,4.8h-3.9V139z"/>
<polygon class="st1" points="76.8,22.8 284.5,40.7 76.8,40.7 37.9,19.1 37.9,19.2 0,41.4 0,22.2 21.6,9.6 37.9,0 54.3,9.6 
	75.2,21.9 76.8,22.8 76.9,22.8 "/>
<path class="st2" d="M254.3,127.1h-32.9l-25.4-46.1l-25.3,44.6c-0.6,1-1.6,1.6-2.7,1.6h-18.4c-7.2,0-13.8-4-17.3-10.3l-19.7-35.8
	l-26.2,46.1H54l43.6-76.8h23.7c4.4,0,8.5,2.4,10.7,6.3l22,39.9L176,57.6c0.8-1.5,1.9-2.8,3.1-3.9c0.1,0,0.1-0.1,0.2-0.2
	c2.5-2.1,5.8-3.4,9.2-3.4H212L254.3,127.1z"/>
<linearGradient id="SVGID_1_" gradientUnits="userSpaceOnUse" x1="107.696" y1="66.5098" x2="36.3502" y2="166.9427">
	<stop  offset="0" style="stop-color:#F6B419"/>
	<stop  offset="2.657360e-02" style="stop-color:#F7B928;stop-opacity:0.9734"/>
	<stop  offset="0.1261" style="stop-color:#F9C95A;stop-opacity:0.8739"/>
	<stop  offset="0.2305" style="stop-color:#FAD886;stop-opacity:0.7695"/>
	<stop  offset="0.338" style="stop-color:#FCE4AB;stop-opacity:0.662"/>
	<stop  offset="0.4495" style="stop-color:#FDEECA;stop-opacity:0.5505"/>
	<stop  offset="0.5661" style="stop-color:#FEF5E1;stop-opacity:0.4339"/>
	<stop  offset="0.6902" style="stop-color:#FEFBF2;stop-opacity:0.3098"/>
	<stop  offset="0.8267" style="stop-color:#FFFEFC;stop-opacity:0.1733"/>
	<stop  offset="1" style="stop-color:#FFFFFF;stop-opacity:0"/>
</linearGradient>
<polygon class="st3" points="112.5,80.9 86.3,127.1 54,127.1 97.7,50.3 "/>
<linearGradient id="SVGID_2_" gradientUnits="userSpaceOnUse" x1="163.2523" y1="117.5" x2="190.9041" y2="49.3582">
	<stop  offset="0" style="stop-color:#F6B419"/>
	<stop  offset="0.334" style="stop-color:#F2B119;stop-opacity:0.666"/>
	<stop  offset="0.6814" style="stop-color:#E5A918;stop-opacity:0.3186"/>
	<stop  offset="1" style="stop-color:#D39D16;stop-opacity:0"/>
</linearGradient>
<path class="st4" d="M195.9,80.9l-25.3,44.6l-16.7-29L176,57.6c0.8-1.5,1.9-2.8,3.1-3.9c0.1,0,0.1-0.1,0.2-0.2L195.9,80.9z"/>
<linearGradient id="SVGID_3_" gradientUnits="userSpaceOnUse" x1="53.6013" y1="29.6099" x2="62.7299" y2="7.1146">
	<stop  offset="0" style="stop-color:#F6B419"/>
	<stop  offset="0.2373" style="stop-color:#F8C44B;stop-opacity:0.7627"/>
	<stop  offset="0.7761" style="stop-color:#FDEDC9;stop-opacity:0.2239"/>
	<stop  offset="1" style="stop-color:#FFFFFF;stop-opacity:0"/>
</linearGradient>
<polygon class="st5" points="76.8,22.8 76.8,40.7 76.8,40.7 37.9,19.1 37.9,19.2 37.9,0 54.3,9.6 75.2,21.9 "/>
<linearGradient id="SVGID_4_" gradientUnits="userSpaceOnUse" x1="-8.3462" y1="80.4822" x2="61.8298" y2="95.5886">
	<stop  offset="0" style="stop-color:#FFFFFF"/>
	<stop  offset="0.2454" style="stop-color:#CDD1DC;stop-opacity:0.7546"/>
	<stop  offset="0.8027" style="stop-color:#4F5D85;stop-opacity:0.1973"/>
	<stop  offset="1" style="stop-color:#213365;stop-opacity:0"/>
</linearGradient>
<path class="st6" d="M48.2,125.9l-0.1,0.2H22c-11.4,0-20.7-9.4-20.7-21V52l11.1-6.6v46.4c0,0-1.9,17.5,24.1,24.5
	C44.5,118.4,47.6,122,48.2,125.9z"/>
<linearGradient id="SVGID_5_" gradientUnits="userSpaceOnUse" x1="256.1647" y1="70.1656" x2="267.9374" y2="41.1544">
	<stop  offset="0" style="stop-color:#FFFFFF"/>
	<stop  offset="0.2454" style="stop-color:#CDD1DC;stop-opacity:0.7546"/>
	<stop  offset="0.8027" style="stop-color:#4F5D85;stop-opacity:0.1973"/>
	<stop  offset="1" style="stop-color:#213365;stop-opacity:0"/>
</linearGradient>
<path class="st7" d="M298.8,72.2c0,1.6-0.2,3.2-0.5,4.7c-2.3-9.8-12.1-14.6-17.5-16.6c-2.1-0.7-4.3-1.1-6.5-1.1h-50.2l-0.3-0.2
	l-4.6-8.6h58.2c10,0,18.4,6.9,20.7,16.3C298.6,68.5,298.8,70.3,298.8,72.2z"/>
</svg>
